<svg width="238" height="67" viewBox="0 0 238 67" fill="none" xmlns="http://www.w3.org/2000/svg">
<g clip-path="url(#clip0_131_544)">
<path d="M44.1515 20.8119C44.7564 20.2189 45.4788 19.759 46.2721 19.4618C48.8945 18.4475 50.4849 21.5824 48.4704 23.2046C46.9365 24.4557 45.1022 22.7345 44.4449 21.4375C44.3361 21.2288 44.2393 21.014 44.155 20.7942M51.4639 24.7561C50.757 25.6114 49.6968 26.1239 49.1666 27.0923C48.4174 28.4176 49.4069 30.1494 49.6296 31.4818C50.6899 37.741 46.0741 42.8126 40.7091 45.785C41.8824 44.2718 42.8575 42.615 43.6108 40.8547C45.4097 36.6454 47.0673 29.5451 43.4553 25.7351C43.0696 25.3254 42.612 24.99 42.1052 24.7455C42.137 24.6112 42.1723 24.4805 42.2112 24.3497C42.5096 23.153 43.0765 22.0399 43.8688 21.0947C44.2603 22.0311 44.9302 22.8244 45.7879 23.3672C47.6363 24.5299 49.7074 23.7029 49.8629 21.54C50.0325 19.2074 47.8554 18.2531 45.7455 19.1437C45.0927 19.4182 44.4942 19.8072 43.9783 20.2924C43.6611 19.2134 43.5191 18.0906 43.5578 16.9666C43.7521 16.8005 43.9359 16.638 44.1056 16.4966C45.5829 15.2631 47.2016 14.4326 49.0747 15.3656C52.2237 16.9348 53.6693 22.0383 51.4639 24.7561ZM8.36719 21.5612C6.19716 20.7165 4.34167 19.2109 4.65976 16.9066C5.05559 13.8141 9.09878 13.3935 9.35325 16.8606C9.46988 18.4404 8.97861 20.0132 8.36719 21.5612ZM3.47578 38.6811C2.32905 36.5528 1.69832 34.1848 1.63444 31.7681C1.56481 30.1053 1.95883 28.4558 2.77246 27.0039C3.32734 26.0214 4.52192 24.8834 4.27099 23.6676C4.08721 22.777 3.14003 22.1797 2.54274 21.547C1.35523 20.2959 0.796817 18.8681 1.06542 17.1858C1.53194 14.3089 3.85041 11.5769 6.90754 10.916C7.63941 10.7609 8.39641 10.7685 9.12503 10.9382C9.85364 11.1079 10.5361 11.4357 11.1241 11.8982C11.712 12.3608 12.1912 12.9469 12.5277 13.6151C12.8642 14.2832 13.0497 15.0172 13.0713 15.765C13.0925 18.0022 12.2266 20.1545 11.6576 22.3493C10.6407 22.2375 9.63988 22.0098 8.67467 21.6707C9.30377 20.1899 9.85157 18.6914 9.82683 17.1398C9.78796 14.9168 7.99963 13.1002 5.76598 14.4008C3.8186 15.5388 3.8186 18.1011 5.11568 19.7022C5.96677 20.6569 7.04149 21.3855 8.24349 21.8227C7.70982 23.1375 7.10899 24.431 6.73083 25.6892C5.24291 30.7078 6.19009 36.1364 11.2123 38.8366C11.2339 40.2795 11.4795 41.7102 11.9403 43.0777C12.4303 44.4665 13.1679 45.7549 14.1174 46.8806C9.72081 45.223 5.68469 42.6395 3.47578 38.6846M7.21502 25.3181C7.60171 24.1745 8.05245 23.0535 8.56511 21.9605C9.54022 22.3251 10.5582 22.5627 11.594 22.6674C11.3976 23.4413 11.2722 24.2316 11.2193 25.0283C11.1204 26.7707 11.4809 28.4918 11.5516 30.2272C11.5916 31.8873 11.5255 33.5482 11.3536 35.1999C11.3042 35.7901 11.2582 36.3803 11.2335 36.967C6.56472 35.161 5.93209 29.5451 7.21502 25.3322M17.0615 13.2062C16.5737 11.5592 15.8351 9.9971 15.9093 8.25824C16.0047 5.88323 17.4608 3.78034 19.5708 2.54689C22.7304 0.70201 27.4522 1.18267 28.721 4.91837C28.9979 5.74418 29.0225 6.63379 28.7916 7.47364C27.9006 6.66397 26.8352 6.07021 25.678 5.73832C20.1363 4.18678 17.9874 11.3931 21.4687 14.7966C21.887 15.2156 22.363 15.5726 22.8824 15.8569C21.1577 18.6843 20.7229 21.8262 20.578 25.0212C19.2951 25.2015 18.0758 25.3746 16.9908 26.2405C15.5559 27.3644 15.0328 29.1669 15.2236 30.8775C15.4024 32.3278 15.9632 33.7047 16.8487 34.8672C17.7342 36.0297 18.9127 36.9361 20.2635 37.4936C20.3349 38.0769 20.4364 38.6561 20.5674 39.2289C21.3944 42.8692 23.0167 45.0322 23.3135 49.0047C17.8637 47.9444 13.149 44.1981 12.5906 38.9426C12.3962 37.0942 12.5906 35.2317 12.6118 33.3797C12.6043 31.2968 12.4389 29.2174 12.117 27.1594C11.9466 25.6669 12.0399 24.1559 12.3927 22.6957C18.0086 22.7805 18.4363 17.8679 17.0544 13.2062M23.098 15.5105C20.7088 14.2983 19.6556 11.174 20.6735 8.79545C22.2886 5.03147 26.0915 5.75953 28.5478 8.17696C27.5264 10.7676 24.7626 13.1249 23.356 15.1253C23.2676 15.249 23.1828 15.3762 23.098 15.5035M30.8062 11.6229C29.3536 13.853 27.2048 16.3446 24.5788 15.97H24.4728C25.0572 15.0512 25.6883 14.1629 26.3636 13.3087C27.3214 12.0646 28.4594 10.4813 29.1168 8.81666C29.8223 9.66643 30.3921 10.6202 30.8062 11.6441M22.8541 20.5221C23.0121 19.0359 23.4947 17.6025 24.2678 16.3234C26.8725 16.7263 29.3607 14.5563 31.0394 12.2626C31.7753 14.2959 31.7565 16.5258 30.9864 18.5465C29.6081 21.9252 26.2152 23.8478 22.7092 24.6607C22.6806 23.2796 22.729 21.8979 22.8541 20.5221ZM20.4791 29.1209C20.419 31.3864 20.1539 33.2065 20.1257 35.1292C16.4536 33.1253 14.8879 27.2478 20.1716 26.2935L20.525 26.2264C20.4967 27.1983 20.4826 28.1667 20.4543 29.1315M34.3864 6.32147C35.8495 4.3953 38.4154 4.33876 40.4299 5.52627C42.3137 6.63602 43.2291 8.078 43.5295 9.69315C43.9395 11.8985 43.3068 14.4184 43.2114 16.7617C42.3031 17.5639 40.9777 18.6207 39.9281 17.3483C38.5391 15.659 42.7555 10.9301 38.8042 10.2516C38.4426 10.1978 38.0738 10.2179 37.7202 10.3109C37.3667 10.4038 37.0356 10.5676 36.7472 10.7923C35.2381 11.9374 35.8001 13.5773 36.2206 15.0581C36.662 16.5152 36.524 18.0864 35.8354 19.4442C34.3369 22.4271 31.1455 24.3497 29.1733 27.0393C27.2012 29.7288 26.2788 33.2277 26.9291 36.4687C27.4097 38.8649 28.6962 40.9642 30.1276 42.9505C29.3782 43.3317 28.6491 43.7516 27.9434 44.2087C27.6218 44.4243 27.3108 44.6505 27.0104 44.8837C26.5863 43.9683 26.095 43.0282 25.5967 41.9326C24.031 38.5503 22.7693 35.2175 22.8364 31.5737C22.8788 29.5698 22.7763 27.633 22.7269 25.6927C27.3461 24.4416 31.7816 21.9181 32.3718 16.9419C32.5527 15.0817 32.2698 13.2056 31.5484 11.4815C32.5839 9.80625 33.2059 7.87654 34.3758 6.32854M32.9409 29.8066C32.5203 31.708 33.061 33.4469 34.1284 35.0444C35.125 36.5323 36.1146 38.0555 34.8069 39.699C34.0976 40.5274 33.2482 41.2248 32.2976 41.7594C30.4598 39.8721 28.8058 37.7269 28.3216 35.1504C27.7702 32.217 28.721 29.1421 30.4704 26.707C32.2199 24.2719 34.92 22.3387 36.1818 19.6103C36.8702 18.1646 36.9777 16.51 36.4822 14.9875C35.2664 11.0998 37.8959 10.3929 38.5426 10.5166C42.2642 11.1422 37.7863 16.3941 39.7902 17.9386C40.9565 18.8327 42.19 18.087 43.1902 17.2777C43.1902 17.3201 43.1902 17.366 43.1902 17.4084C43.1757 18.4942 43.3356 19.5753 43.6638 20.6105C42.6494 21.7025 42.031 23.1162 41.5786 24.5476C38.1362 23.3955 33.6583 26.5586 32.9444 29.8101M36.0722 35.3978C35.7824 34.9807 35.4643 34.5708 35.1392 34.1714C33.9022 32.6411 33.4498 30.7255 34.1425 28.87C35.2028 26.0603 38.7653 24.1659 41.4443 25.0035C40.384 28.6544 39.8821 33.408 36.0722 35.4013M31.3363 48.9658C30.3422 49.1202 29.3406 49.2217 28.3357 49.2697C28.2898 48.8598 28.2226 48.4674 28.1449 48.0928C30.2089 44.7777 35.4184 43.5866 36.9063 39.8439C37.1151 39.3367 37.2142 38.7911 37.1972 38.2429C37.1801 37.6947 37.0473 37.1563 36.8073 36.663C40.7374 34.0618 40.9777 29.3471 41.9815 25.2015C42.9332 25.6782 43.6675 26.4997 44.0349 27.4987C45.7631 31.7398 44.0066 37.225 41.8154 41.0172C40.687 42.9725 39.1784 44.6819 37.3786 46.0447C35.5788 47.4074 33.5243 48.3958 31.3363 48.9516M48.4598 14.8214C46.4099 14.2488 45.0068 15.1748 43.5684 16.44C43.5966 15.8958 43.6496 15.3798 43.7203 14.8496C43.9783 12.9235 44.5014 11.0715 43.9253 9.14534C43.6131 8.11937 43.0775 7.17528 42.357 6.38089C41.6366 5.58649 40.7491 4.9615 39.7584 4.55081C37.7898 3.75914 35.5597 4.05955 34.1425 5.64996C33.1176 6.80213 32.6652 8.43142 31.9195 9.74617C31.7321 10.0784 31.5166 10.453 31.2762 10.8489C30.7958 9.81268 30.1553 8.85855 29.3783 8.02145C29.7995 6.80413 29.7465 5.47279 29.2299 4.29281C28.0035 1.72694 25.1902 0.497023 22.2886 1.02009C18.9841 1.61738 16.0754 4.20092 15.6265 7.42769C15.1777 10.6545 17.217 13.6126 17.3195 16.8288C17.4219 20.045 15.9729 22.4836 12.4528 22.4129C12.937 20.2146 13.6474 18.0623 13.5837 15.7721C13.4848 12.1813 9.87278 9.60833 6.2325 10.7146C2.99512 11.6971 0.429255 15.0688 0.496406 18.3132C0.531748 20.2323 1.68745 21.4375 2.91737 22.8194C3.58181 23.5722 3.74085 23.8796 3.23899 24.8268C2.44378 26.3183 1.34816 27.4351 0.881639 29.1033C0.457645 30.81 0.390268 32.5859 0.683721 34.3198C2.05501 44.0072 11.0214 50.6092 20.7477 52.4187C20.8268 52.4405 20.907 52.4582 20.988 52.4718C21.3223 52.519 21.6286 52.6843 21.8516 52.9377C22.0746 53.1912 22.1995 53.5161 22.2038 53.8537V61.3533C22.1985 61.7134 22.0583 62.0585 21.811 62.3202C21.5636 62.582 21.2271 62.7414 20.8678 62.767C20.73 62.767 20.6204 62.7918 20.5144 62.8024C16.3833 63.161 12.3222 64.0936 8.44848 65.5732H43.4376C39.4349 64.0413 35.2338 63.0892 30.9617 62.7458C30.6044 62.7184 30.2704 62.558 30.0256 62.2962C29.7809 62.0345 29.6432 61.6905 29.6399 61.3321V53.8749C29.6448 53.5521 29.7601 53.2408 29.9664 52.9926C30.1728 52.7444 30.4579 52.5743 30.7744 52.5106C36.2059 51.5174 41.2399 48.9912 45.2825 45.2301C47.6398 43.0106 49.5907 40.2821 50.4531 37.2215C50.9024 35.6324 51.038 33.971 50.8525 32.33C50.7647 31.5567 50.5904 30.7956 50.3329 30.0611C50.1067 29.4178 49.7286 28.5979 49.8134 27.9052C49.9123 27.0888 50.6581 26.594 51.2271 26.0638C52.221 25.1833 52.8667 23.9759 53.0472 22.6603C53.4007 19.7799 51.6053 15.712 48.4527 14.832" fill="#242424"/>
<path d="M30.7779 54.5853H26.4202V58.9431H30.7779V54.5853Z" fill="#D9D9D9" stroke="white" stroke-width="0.353425" stroke-miterlimit="10"/>
<path d="M68.3718 0.836304H79.5436V13.655L78.7201 13.5808L77.8966 13.6374V1.77288L73.9666 1.72694L70.0188 1.78349V13.655L69.1953 13.5808L68.3718 13.6374V0.836304Z" fill="#242424"/>
<path d="M85.1384 7.75991V13.655L84.3149 13.5808L83.4915 13.6374V0.836304H86.8419C88.6656 0.836304 89.9262 1.06132 90.6236 1.51135C91.321 1.96137 91.6744 2.75894 91.6839 3.90404C91.7115 4.37944 91.6354 4.85517 91.4609 5.29824C91.2864 5.74131 91.0175 6.14111 90.6731 6.4699C90.0416 7.03303 89.0414 7.45478 87.6725 7.73517C87.4568 7.77672 87.2382 7.80153 87.0186 7.80939H86.5521C86.2623 7.80939 86.0078 7.80939 85.7816 7.80939L85.1384 7.75991ZM85.1384 1.54669V7.02832C85.3067 7.03991 85.4755 7.03991 85.6438 7.02832C85.7615 7.03557 85.8795 7.03557 85.9972 7.02832H86.6687C86.775 7.00879 86.8824 6.99698 86.9904 6.99297C87.8063 6.95191 88.5786 6.61228 89.1604 6.03872C89.4216 5.76106 89.6253 5.43454 89.76 5.07791C89.8946 4.72129 89.9575 4.34158 89.945 3.96058C89.9732 3.37773 89.8011 2.80277 89.4573 2.33129C89.3186 2.12737 89.1388 1.95473 88.9294 1.82447C88.72 1.69421 88.4857 1.60922 88.2415 1.57496C87.7926 1.52902 87.4392 1.50781 87.1812 1.50781H85.1313L85.1384 1.54669Z" fill="#242424"/>
<path d="M100.784 13.8424C98.6991 13.8424 97.0298 13.2416 95.7763 12.0399C94.5228 10.8383 93.8961 9.23372 93.8961 7.22627C93.862 6.3173 94.0232 5.41159 94.3689 4.57024C94.7146 3.72888 95.2367 2.97144 95.9 2.349C97.1841 1.15442 98.8252 0.557129 100.823 0.557129C102.767 0.557129 104.388 1.06135 105.686 2.06979C107.171 3.22903 107.913 4.85478 107.913 6.94706C107.913 9.03934 107.252 10.7052 105.93 11.9445C104.608 13.2098 102.893 13.8424 100.784 13.8424ZM106.086 7.0955C106.095 6.3382 106.014 5.58248 105.845 4.84418C105.669 4.1651 105.349 3.53141 104.909 2.98516C104.453 2.4066 103.865 1.94599 103.195 1.64214C102.511 1.32888 101.766 1.16847 101.014 1.17209C100.282 1.13959 99.552 1.27712 98.8818 1.5739C98.2116 1.87068 97.6192 2.31864 97.1511 2.88267C96.2087 4.02541 95.7374 5.54867 95.7374 7.45246C95.7374 9.2832 96.2369 10.7216 97.2359 11.7678C97.7024 12.25 98.265 12.6287 98.8872 12.8796C99.5095 13.1304 100.177 13.2477 100.848 13.2239C101.672 13.2466 102.488 13.0469 103.209 12.6458C103.929 12.2447 104.529 11.657 104.944 10.9443C105.693 9.80085 106.087 8.46209 106.079 7.0955H106.086Z" fill="#242424"/>
<path d="M116.749 13.6551V12.5348C114.678 12.5348 113.028 12.0105 111.801 10.962C111.235 10.5019 110.783 9.91899 110.476 9.2576C110.17 8.5962 110.019 7.87372 110.034 7.14504C110.009 6.41718 110.153 5.69344 110.454 5.03058C110.756 4.36772 111.207 3.78377 111.772 3.32451C112.995 2.31843 114.645 1.81303 116.72 1.80832V0.836397C116.795 0.836397 116.911 0.861137 117.074 0.875274C117.236 0.889411 117.392 0.875274 117.544 0.875274C117.818 0.882533 118.093 0.863598 118.364 0.818726V1.79065C120.461 1.79065 122.102 2.28426 123.287 3.2715C123.847 3.74107 124.298 4.32619 124.611 4.9867C124.923 5.64721 125.089 6.36748 125.096 7.09807C125.104 7.82866 124.954 8.55227 124.655 9.21924C124.357 9.8862 123.918 10.4807 123.368 10.962C122.131 12.0082 120.482 12.5324 118.42 12.5348V13.6375C118.218 13.5976 118.012 13.5786 117.805 13.5809H117.197C117.045 13.5798 116.893 13.6049 116.749 13.6551ZM111.882 7.14504C111.864 7.76622 111.973 8.38453 112.203 8.96194C112.433 9.53934 112.778 10.0636 113.218 10.5026C113.685 10.9543 114.239 11.306 114.847 11.5363C115.455 11.7666 116.103 11.8707 116.752 11.8421V2.43388C115.239 2.43388 114.034 2.8898 113.119 3.81224C112.702 4.25775 112.377 4.78192 112.165 5.35416C111.953 5.92639 111.856 6.5352 111.882 7.14504ZM123.259 7.14504C123.29 5.92999 122.839 4.75192 122.004 3.86879C121.538 3.38791 120.974 3.01139 120.352 2.76405C119.729 2.51672 119.061 2.40418 118.392 2.43388V11.8421C119.041 11.8713 119.69 11.7675 120.297 11.5372C120.905 11.3069 121.459 10.9548 121.926 10.5026C122.366 10.0637 122.711 9.53935 122.94 8.96187C123.17 8.38438 123.278 7.76604 123.259 7.14504Z" fill="#242424"/>
<path d="M129.772 1.72694V6.41336H132.671C132.907 6.41336 133.225 6.41336 133.618 6.37448C134.01 6.3356 134.25 6.33914 134.325 6.33914L134.268 6.82686L134.325 7.34994C134.098 7.34994 133.787 7.34993 133.388 7.29339C132.989 7.23684 132.745 7.23684 132.656 7.23684H129.758V12.7008C130.158 12.7008 130.819 12.7008 131.713 12.6655L133.144 12.6266C133.498 12.6266 133.752 12.6266 133.911 12.5983C134.07 12.57 134.392 12.5347 134.865 12.4569L134.823 13.0365L134.879 13.5985H128.125V0.836304H134.77L134.713 1.37351L134.77 1.91779C134.395 1.84357 134.088 1.79055 133.851 1.75874C133.596 1.72818 133.34 1.71284 133.084 1.7128H129.772V1.72694Z" fill="#242424"/>
<path d="M147.907 11.6229L147.811 12.7927C147.231 13.1777 146.584 13.451 145.903 13.5985C145.173 13.768 144.426 13.8522 143.676 13.8495C141.631 13.8495 140.022 13.2451 138.848 12.0364C137.675 10.8277 137.086 9.20193 137.081 7.15913C137.081 5.11633 137.762 3.49057 139.124 2.28186C140.42 1.13676 142.092 0.564209 144.139 0.564209C144.821 0.566581 145.501 0.641218 146.168 0.786867C146.851 0.935733 147.518 1.14873 148.161 1.42303C148.073 1.65447 147.998 1.89042 147.935 2.12988C147.861 2.40909 147.804 2.65649 147.769 2.86854H147.638C147.422 2.62617 147.177 2.41238 146.907 2.23238C146.085 1.61472 145.089 1.27433 144.061 1.26046C143.325 1.2241 142.59 1.3657 141.919 1.67328C141.249 1.98087 140.662 2.4454 140.209 3.02758C139.349 4.13263 138.919 5.53219 138.919 7.22628C138.919 9.00754 139.381 10.4342 140.305 11.5063C140.749 12.0304 141.307 12.4473 141.935 12.7258C142.564 13.0042 143.247 13.1371 143.934 13.1143C144.645 13.107 145.349 12.9717 146.012 12.715C146.703 12.4651 147.344 12.0954 147.907 11.6229Z" fill="#242424"/>
<path d="M160.948 11.6229L160.856 12.7927C160.276 13.1777 159.628 13.451 158.948 13.5985C158.218 13.7676 157.471 13.8518 156.721 13.8495C154.674 13.8495 153.064 13.2451 151.893 12.0364C150.722 10.8277 150.133 9.20193 150.126 7.15913C150.126 5.11633 150.806 3.49057 152.165 2.28186C153.461 1.13676 155.133 0.564209 157.181 0.564209C157.864 0.56657 158.545 0.641205 159.213 0.786867C159.896 0.935733 160.563 1.14873 161.206 1.42303C161.117 1.65391 161.041 1.88995 160.98 2.12988C160.906 2.40909 160.849 2.65649 160.81 2.86854H160.68C160.465 2.62604 160.221 2.41222 159.951 2.23238C159.135 1.6189 158.145 1.27878 157.124 1.26046C155.475 1.26046 154.189 1.8495 153.268 3.02758C152.408 4.1232 151.978 5.51805 151.978 7.21214C151.978 8.9934 152.44 10.4201 153.364 11.4921C153.808 12.0165 154.366 12.4335 154.994 12.712C155.623 12.9905 156.306 13.1232 156.993 13.1002C157.701 13.0962 158.402 12.9657 159.064 12.715C159.752 12.4651 160.39 12.0954 160.948 11.6229Z" fill="#242424"/>
<path d="M170.137 13.8424C168.057 13.8424 166.388 13.2416 165.133 12.0399C163.877 10.8383 163.25 9.23372 163.252 7.22627C163.218 6.31756 163.379 5.41202 163.724 4.57068C164.069 3.72934 164.59 2.97176 165.253 2.349C166.539 1.15442 168.18 0.557129 170.176 0.557129C172.122 0.557129 173.744 1.06135 175.043 2.06979C176.527 3.22903 177.269 4.85478 177.269 6.94706C177.269 9.03934 176.607 10.7052 175.283 11.9445C173.961 13.2098 172.246 13.8424 170.137 13.8424ZM175.439 7.0955C175.448 6.33797 175.366 5.58203 175.195 4.84418C175.02 4.16478 174.702 3.53077 174.262 2.98516C173.807 2.40705 173.22 1.94647 172.551 1.64214C171.868 1.3297 171.125 1.16932 170.374 1.17209C169.638 1.13626 168.903 1.27215 168.228 1.56903C167.554 1.8659 166.957 2.31563 166.486 2.88267C165.544 4.02541 165.073 5.54867 165.073 7.45246C165.073 9.2832 165.571 10.7216 166.568 11.7678C167.034 12.2496 167.597 12.6282 168.219 12.879C168.841 13.1298 169.509 13.2473 170.18 13.2239C171.005 13.2472 171.821 13.0479 172.542 12.6467C173.264 12.2456 173.864 11.6575 174.279 10.9443C175.034 9.80249 175.436 8.46402 175.435 7.0955H175.439Z" fill="#242424"/>
<path d="M181.949 7.75991V13.655L181.125 13.5808L180.298 13.6374V0.836304H183.649C185.472 0.836304 186.733 1.06132 187.43 1.51135C188.128 1.96137 188.481 2.75894 188.49 3.90404C188.517 4.37968 188.441 4.85551 188.266 5.29855C188.09 5.7416 187.821 6.14128 187.476 6.4699C186.854 7.03303 185.856 7.45125 184.483 7.72457C184.267 7.76634 184.048 7.79116 183.829 7.79878H183.362C183.076 7.79878 182.818 7.79878 182.595 7.79878L181.949 7.75991ZM181.949 1.54669V7.02832C182.116 7.03998 182.283 7.03998 182.45 7.02832C182.568 7.03548 182.686 7.03548 182.804 7.02832H183.479C183.584 7.00866 183.69 6.99685 183.797 6.99297C184.613 6.95257 185.386 6.61284 185.967 6.03872C186.228 5.76106 186.432 5.43454 186.567 5.07791C186.701 4.72129 186.764 4.34158 186.752 3.96058C186.773 3.39272 186.607 2.83357 186.278 2.37017C186.138 2.1666 185.958 1.99427 185.748 1.86408C185.538 1.73389 185.303 1.64868 185.059 1.61384C184.61 1.56789 184.26 1.54669 183.998 1.54669H181.952H181.949Z" fill="#242424"/>
<path d="M201.447 11.6229L201.352 12.7927C200.771 13.1777 200.124 13.451 199.443 13.5985C198.713 13.7678 197.966 13.852 197.217 13.8495C195.169 13.8495 193.56 13.2451 192.389 12.0364C191.218 10.8277 190.629 9.20193 190.622 7.15913C190.622 5.11633 191.301 3.49057 192.661 2.28186C193.961 1.13676 195.634 0.564209 197.679 0.564209C198.362 0.566581 199.042 0.641218 199.708 0.786867C200.391 0.935733 201.059 1.14873 201.701 1.42303C201.612 1.65391 201.536 1.88995 201.475 2.12988C201.401 2.40909 201.345 2.65649 201.309 2.86854H201.178C200.963 2.62617 200.717 2.41238 200.447 2.23238C199.625 1.61538 198.629 1.27506 197.602 1.26046C195.952 1.26046 194.668 1.8495 193.749 3.02758C192.887 4.1232 192.456 5.51805 192.456 7.21214C192.456 8.9934 192.918 10.4201 193.841 11.4921C194.286 12.0163 194.844 12.4332 195.472 12.7116C196.101 12.9901 196.784 13.1229 197.471 13.1002C198.182 13.0928 198.886 12.9575 199.549 12.7008C200.24 12.4557 200.883 12.0908 201.447 11.6229Z" fill="#242424"/>
<path d="M213.845 0.839839L209.604 4.92544L208.007 6.52292C209.515 8.25235 211.031 9.97353 212.555 11.6865L214.072 13.5632V13.655L213.039 13.5808L211.979 13.6374C211.777 13.3499 211.568 13.0601 211.354 12.7679C211.135 12.4746 210.912 12.1954 210.686 11.9339L206.607 7.16262C206.536 7.10933 206.452 7.07635 206.363 7.06719C206.314 7.06719 206.289 7.09547 206.289 7.10607V13.655L205.466 13.5808L204.656 13.6374V0.836304L205.48 0.892852L206.303 0.836304V6.61834C206.303 6.66782 206.374 6.68196 206.48 6.65722C206.595 6.62958 206.701 6.57507 206.791 6.49818C206.89 6.41807 207.095 6.22722 207.406 5.92563L207.759 5.58988L212.354 0.836304L213.103 0.892852L213.845 0.839839Z" fill="#242424"/>
<path d="M221.338 0.557129L226.954 13.6551L225.982 13.5809L224.989 13.6374C224.541 12.3509 224.161 11.3154 223.847 10.5308C223.646 10.0325 223.374 9.38216 223.024 8.58342H218.27C217.547 10.393 217.142 11.4226 217.054 11.6724C216.867 12.1707 216.655 12.8281 216.418 13.6374L215.711 13.5809L215.058 13.6374L220.896 0.560664L221.338 0.557129ZM222.734 7.79882L220.666 3.02757L218.62 7.79882H222.734Z" fill="#242424"/>
<path d="M237.394 0.836403V13.6551L236.571 13.5809L235.758 13.6375V7.38184H235.051L233.542 9.14897L231.34 12.0152L230.17 13.6516L229.11 13.5845L228.014 13.641L228.368 13.1745L229.279 12.1142L233.118 7.22987C232.167 7.09537 231.266 6.72207 230.499 6.14485C230.114 5.85824 229.803 5.48457 229.592 5.05451C229.38 4.62446 229.273 4.15028 229.279 3.67087C229.251 3.258 229.328 2.84468 229.504 2.46994C229.679 2.0952 229.948 1.7714 230.283 1.52912C230.948 1.05906 232.001 0.822266 233.436 0.822266L237.394 0.836403ZM235.758 6.67499V1.49024H233.973C233.647 1.48769 233.321 1.50658 232.997 1.54679C231.619 1.78241 230.93 2.56583 230.93 3.89707C230.917 4.22053 230.968 4.54341 231.081 4.84684C231.193 5.15026 231.366 5.42813 231.587 5.66419C232.066 6.146 232.684 6.465 233.354 6.57603C233.588 6.62321 233.824 6.65509 234.061 6.67146C234.28 6.67146 234.535 6.67146 234.821 6.67146H235.758V6.67499Z" fill="#242424"/>
<path d="M91.8746 23.7347V28.8948C91.8639 28.9627 91.8731 29.0324 91.9014 29.0952C91.9297 29.158 91.9756 29.2112 92.0337 29.2482C92.2245 29.3542 92.5143 29.2482 92.8996 28.9831C93.4026 28.588 93.8752 28.1556 94.3133 27.6896L95.9426 26.0214L97.9995 23.7453L99.0598 23.8514L100.088 23.7453V23.9327C98.8772 24.9529 97.824 25.8612 96.9286 26.6576C95.8589 27.6 94.9812 28.3941 94.2956 29.0397L100.484 36.2531V36.3626L99.1905 36.2566L97.8687 36.3344C97.4093 35.7406 96.8473 35.0444 96.1794 34.2562C95.6657 33.6601 94.5477 32.3784 92.8254 30.4109C92.578 30.1317 92.3765 29.9904 92.2175 29.9904C91.9877 29.9904 91.864 30.3155 91.864 30.9658V36.3626L90.825 36.2566L89.793 36.3626V23.7807L90.8356 23.8584L91.8746 23.7347Z" fill="#242424"/>
<path d="M110.514 30.6867L108.394 36.3733L107.552 36.2956L106.708 36.3733C107.009 35.7584 107.58 34.5119 108.418 32.6341C109.191 30.9164 109.85 29.4073 110.394 28.1067C111.168 26.2618 111.726 24.8234 112.08 23.7878L112.868 23.8691L113.684 23.7878C114.248 25.2958 115.011 27.2443 115.975 29.6335C117.044 32.2842 118.001 34.5308 118.844 36.3733L117.66 36.2956L116.501 36.3733C115.395 32.9201 114.085 29.5354 112.578 26.2371C112.352 26.4668 111.981 27.1843 111.472 28.3965L110.514 30.6867Z" fill="#242424"/>
<path d="M128.783 32.9238C129.926 31.6892 131.172 30.2366 132.522 28.5661C133.872 26.8955 135.101 25.2851 136.208 23.7347H137.269V36.3626L136.208 36.2566L135.148 36.3344V27.1736C133.97 28.4907 133.11 29.4732 132.568 30.1211C131.762 31.0636 130.912 32.1039 130.016 33.2419C129.121 34.3799 128.359 35.4202 127.73 36.3626H126.669V23.7807C126.862 23.8085 127.055 23.8262 127.249 23.8337L127.723 23.8584H128.225L128.776 23.7524L128.783 32.9238Z" fill="#242424"/>
<path d="M152.162 29.1846C152.869 29.1846 153.494 29.1846 154.056 29.1457C154.618 29.1068 155.049 29.0891 155.346 29.0538V23.7524L156.406 23.8584L157.467 23.7807V36.3626L156.406 36.2566L155.346 36.3344V30.2378L152.165 30.16L148.985 30.2378V36.3626L147.924 36.2566L146.864 36.3344V23.7347L147.924 23.8408L148.985 23.763V29.0644C149.458 29.0997 150.045 29.1315 150.752 29.1563C151.459 29.181 151.9 29.1846 152.162 29.1846Z" fill="#242424"/>
<path d="M169.169 32.9238C170.311 31.6892 171.558 30.2366 172.908 28.5661C174.258 26.8955 175.487 25.2851 176.594 23.7347H177.654V36.3626L176.594 36.2566L175.534 36.3344V27.1736C174.356 28.4907 173.496 29.4732 172.954 30.1211C172.143 31.0636 171.292 32.1039 170.399 33.2419C169.506 34.3799 168.745 35.4202 168.115 36.3626H167.055V23.7807C167.247 23.8085 167.441 23.8262 167.635 23.8337L168.108 23.8584H168.607L169.158 23.7524L169.169 32.9238Z" fill="#242424"/>
<path d="M189.388 23.7347V28.8948C189.377 28.9627 189.387 29.0324 189.415 29.0952C189.443 29.158 189.489 29.2112 189.547 29.2482C189.738 29.3542 190.028 29.2658 190.417 28.9831C190.919 28.5869 191.391 28.1546 191.83 27.6896L193.463 26.0214L195.517 23.7453L196.577 23.8514L197.602 23.7453V23.9327C196.391 24.9529 195.338 25.8612 194.442 26.6576C193.373 27.6 192.495 28.3941 191.809 29.0397L197.998 36.2531V36.3626L196.704 36.2566L195.382 36.3344C194.923 35.7406 194.361 35.0444 193.693 34.2562C193.179 33.6601 192.061 32.3784 190.339 30.4109C190.092 30.1317 189.89 29.9904 189.731 29.9904C189.501 29.9904 189.378 30.3155 189.378 30.9658V36.3626L188.339 36.2566L187.3 36.3344V23.7524L188.339 23.8302L189.388 23.7347Z" fill="#242424"/>
<path d="M214.821 28.0289V34.8995C214.829 34.9829 214.854 35.0639 214.894 35.1373C214.935 35.2108 214.99 35.2752 215.056 35.3268C215.122 35.3784 215.198 35.416 215.279 35.4373C215.36 35.4586 215.445 35.4632 215.527 35.4508C215.785 35.4466 216.042 35.411 216.291 35.3448V35.9244C216.202 35.9598 216.079 36.0093 215.913 36.0693C215.734 36.1351 215.549 36.1836 215.361 36.2142C215.128 36.252 214.891 36.2697 214.654 36.2673C214.213 36.2899 213.777 36.1656 213.414 35.9138C213.237 35.7583 213.094 35.5685 212.993 35.3558C212.892 35.1431 212.836 34.9121 212.827 34.6768L212.587 34.9136C212.083 35.4418 211.476 35.8614 210.804 36.1464C210.132 36.4315 209.408 36.576 208.678 36.5712C207.762 36.5962 206.869 36.2829 206.169 35.6912C205.832 35.4053 205.564 35.047 205.386 34.6431C205.207 34.2391 205.122 33.8 205.137 33.3586C205.112 32.9108 205.181 32.4628 205.34 32.0434C205.499 31.624 205.744 31.2425 206.059 30.9235C206.674 30.3368 207.999 29.8844 210.035 29.5663C210.773 29.4788 211.498 29.3032 212.195 29.0432C212.408 28.9187 212.581 28.7356 212.693 28.5157C212.805 28.2958 212.852 28.0483 212.827 27.8027C212.872 27.3872 212.823 26.967 212.684 26.5729C212.545 26.1789 212.319 25.821 212.023 25.5257C211.728 25.2303 211.37 25.005 210.975 24.8664C210.581 24.7277 210.161 24.6792 209.745 24.7244C208.953 24.7078 208.177 24.9483 207.533 25.41C207.109 25.6741 206.786 26.0722 206.614 26.541H206.324V25.0531C206.962 24.6038 207.656 24.2403 208.388 23.9716C209.087 23.7313 209.822 23.6118 210.562 23.6182C213.399 23.6087 214.818 25.079 214.821 28.0289ZM212.7 33.6519V29.7925L211.778 30.0046C210.795 30.1594 209.827 30.3959 208.883 30.7114C207.823 31.185 207.303 31.9449 207.303 32.9839C207.278 33.3204 207.325 33.6583 207.441 33.9752C207.557 34.2921 207.739 34.5807 207.975 34.8217C208.507 35.2679 209.191 35.4909 209.883 35.4438C210.271 35.4305 210.65 35.3264 210.989 35.1398C211.359 34.9598 211.697 34.7211 211.99 34.433L212.41 34.0371C212.619 33.8569 212.714 33.7226 212.714 33.6519H212.7Z" fill="#242424"/>
<path d="M73.4328 56.3029C73.2681 56.2763 73.1012 56.2669 72.9345 56.2746C72.7139 56.2777 72.4933 56.2695 72.2736 56.2499H71.0366V65.3046L69.8774 65.2269L68.7217 65.3046V47.2976L69.8774 47.3789L71.0366 47.2976V54.8821H72.9592C73.1446 54.8862 73.3301 54.8767 73.5141 54.8539C73.6321 53.7252 73.9742 52.6315 74.5204 51.6368C75.0666 50.6421 75.8059 49.7664 76.695 49.0612C78.5401 47.6074 80.8356 46.8448 83.1838 46.9053C85.9241 46.9053 88.206 47.6122 90.0297 49.0259C92.1196 50.6563 93.1634 52.943 93.161 55.8859C93.1587 58.8287 92.2292 61.1731 90.3725 62.919C88.5135 64.7003 86.0996 65.5897 83.1308 65.5874C80.1998 65.5874 77.853 64.7439 76.0906 63.0569C74.3282 61.3698 73.4423 59.1185 73.4328 56.3029ZM90.5704 56.1191C90.5803 55.0485 90.4617 53.9806 90.217 52.9383C89.9704 51.9809 89.5208 51.0878 88.8987 50.3194C88.2608 49.5033 87.4351 48.8534 86.4919 48.4251C85.53 47.9828 84.4828 47.7572 83.4242 47.7641C81.1246 47.7641 79.3127 48.5664 77.9885 50.171C76.6643 51.7755 76.0046 53.9196 76.0093 56.6033C76.0093 59.1786 76.7162 61.2026 78.1299 62.6752C78.7863 63.3535 79.5779 63.8865 80.4534 64.2396C81.3288 64.5928 82.2687 64.7581 83.2121 64.725C85.6861 64.725 87.6076 63.6589 88.9765 61.5265C90.0257 59.919 90.58 58.0388 90.5704 56.1191Z" fill="#242424"/>
<path d="M112.108 47.2198V63.9298H113.582C113.564 64.0712 113.547 64.2832 113.529 64.5306C113.511 64.778 113.501 64.9406 113.501 64.9936L113.582 66.326H113.345C113.171 66.0684 112.943 65.8516 112.677 65.6905C112.411 65.5295 112.113 65.4279 111.804 65.393C110.568 65.2474 109.323 65.1895 108.079 65.2198H104.283C102.196 65.2198 100.612 65.2292 99.5333 65.2481C98.4541 65.2669 97.4492 65.2834 96.5186 65.2975V47.2198L97.6778 47.2976L98.8335 47.2198V63.9298H109.79V47.2128C110.173 47.2712 110.561 47.2972 110.949 47.2905L112.108 47.2198Z" fill="#242424"/>
<path d="M129.935 47.3188L123.966 53.0655L121.714 55.3133C123.835 57.7448 125.968 60.1646 128.115 62.5726L130.235 65.2163V65.3435L128.786 65.2375L127.313 65.3152C127.033 64.9123 126.74 64.5059 126.433 64.0924C126.125 63.6789 125.814 63.2901 125.496 62.9225L119.756 56.2074C119.654 56.1301 119.531 56.0846 119.403 56.0767C119.332 56.0955 119.297 56.1132 119.297 56.1297V65.3435L118.138 65.2375L116.979 65.3152V47.2976L118.138 47.3789L119.297 47.2976V55.4264C119.315 55.4971 119.396 55.5147 119.544 55.4794C119.705 55.44 119.854 55.3624 119.979 55.2532C120.12 55.1401 120.41 54.875 120.849 54.4509C121.008 54.2954 121.174 54.1364 121.35 53.9773L127.825 47.2905L128.885 47.3718L129.935 47.3188Z" fill="#242424"/>
<path d="M141.513 65.5944C138.585 65.5944 136.238 64.7497 134.473 63.0604C132.708 61.371 131.826 59.1138 131.826 56.2887C131.826 53.4613 132.768 51.1747 134.653 49.4288C136.461 47.7417 138.768 46.9006 141.577 46.9053C144.317 46.9053 146.599 47.6121 148.423 49.0258C150.51 50.6563 151.555 52.943 151.558 55.8858C151.56 58.8287 150.629 61.1731 148.766 62.919C146.897 64.705 144.48 65.5968 141.513 65.5944ZM148.964 56.105C148.974 55.0343 148.855 53.9663 148.61 52.9241C148.363 51.9681 147.913 51.0763 147.292 50.3088C146.653 49.4936 145.827 48.8439 144.885 48.4144C143.922 47.9754 142.875 47.7511 141.817 47.757C139.518 47.757 137.705 48.5593 136.378 50.1639C135.052 51.7684 134.389 53.9102 134.392 56.5891C134.392 59.1644 135.099 61.1884 136.512 62.661C137.169 63.3396 137.96 63.8727 138.836 64.2258C139.711 64.5789 140.651 64.7442 141.595 64.7109C144.069 64.7109 145.99 63.6423 147.359 61.5053C148.41 59.9006 148.968 58.0232 148.964 56.105Z" fill="#242424"/>
<path d="M155.021 65.2269V47.2976H160.322C162.342 47.2976 163.825 47.5697 164.772 48.114C165.719 48.6583 166.19 49.6008 166.186 50.9414C166.198 51.4924 166.101 52.0405 165.901 52.5537C165.7 53.067 165.399 53.5353 165.016 53.9314C164.201 54.7655 163.163 55.3461 162.026 55.6031C163.149 55.5772 164.252 55.8981 165.186 56.522C165.714 56.868 166.144 57.3447 166.433 57.9057C166.723 58.4667 166.863 59.093 166.84 59.724C166.862 60.6069 166.655 61.4805 166.24 62.2601C165.826 63.0397 165.216 63.6989 164.472 64.1737C163.672 64.688 162.76 65.0042 161.814 65.0961C160.851 65.1986 159.884 65.2423 158.916 65.2269H155.021ZM157.336 48.2625V55.1861H158.492C159.114 55.1922 159.736 55.1615 160.354 55.0942C160.871 55.026 161.374 54.8794 161.846 54.6595C163.193 54.0633 163.867 53.0031 163.867 51.4786C163.867 50.3017 163.489 49.4712 162.74 49.0047C161.991 48.5381 160.877 48.2801 159.407 48.2801L157.336 48.2625ZM157.336 56.2145V64.2408H159.969C161.135 64.2888 162.275 63.8835 163.15 63.1099C163.558 62.7381 163.881 62.2818 164.095 61.7728C164.309 61.2638 164.41 60.7142 164.39 60.1623C164.39 58.7062 163.88 57.6612 162.86 57.0274C161.983 56.4855 160.677 56.2145 158.94 56.2145H157.336Z" fill="#242424"/>
<path d="M184.479 62.4632L184.348 64.1066C183.531 64.648 182.62 65.0338 181.662 65.2446C180.635 65.4802 179.585 65.5988 178.531 65.5981C175.649 65.5981 173.385 64.7487 171.738 63.0499C170.091 61.3511 169.267 59.0632 169.264 56.1864C169.264 53.3118 170.221 51.0252 172.134 49.3264C173.958 47.7147 176.314 46.9089 179.202 46.9089C180.163 46.911 181.12 47.0165 182.058 47.2235C183.02 47.4294 183.96 47.7289 184.864 48.1176C184.74 48.44 184.633 48.7692 184.546 49.1037C184.44 49.4995 184.362 49.8459 184.309 50.164L184.126 50.1887C183.823 49.8475 183.477 49.5469 183.097 49.2946C181.943 48.4238 180.542 47.9435 179.096 47.9233C176.783 47.9233 174.976 48.7562 173.675 50.422C172.464 51.9676 171.858 53.9303 171.858 56.3101C171.858 58.8147 172.507 60.8174 173.806 62.3183C174.431 63.0564 175.215 63.6433 176.1 64.035C176.984 64.4267 177.946 64.6131 178.913 64.5802C179.912 64.5699 180.902 64.3807 181.836 64.0218C182.801 63.6604 183.696 63.133 184.479 62.4632Z" fill="#242424"/>
<path d="M201.122 47.3188L195.153 53.0655L192.901 55.3133C195.022 57.7448 197.155 60.1646 199.302 62.5726L201.422 65.2163V65.3435L199.977 65.2375L198.503 65.3152C198.22 64.9123 197.927 64.5059 197.619 64.0924C197.312 63.6789 197.001 63.2901 196.683 62.9225L190.947 56.2074C190.844 56.1307 190.721 56.0852 190.593 56.0767C190.523 56.0955 190.487 56.1132 190.487 56.1297V65.3435L189.328 65.2375L188.172 65.3152V47.2976L189.328 47.3789L190.487 47.2976V55.4264C190.487 55.4971 190.59 55.5147 190.738 55.4794C190.899 55.439 191.048 55.3615 191.173 55.2532C191.311 55.1401 191.601 54.875 192.042 54.4509C192.198 54.2954 192.364 54.1364 192.541 53.9773L199.015 47.2905L200.076 47.3718L201.122 47.3188Z" fill="#242424"/>
<path d="M204.278 65.3435V47.3188C204.417 47.3456 204.557 47.3633 204.699 47.3719C204.911 47.3719 205.155 47.4001 205.437 47.4001L206.593 47.3188V61.0636H206.858L218.836 47.3188H219.995V65.3259L218.836 65.2481L217.676 65.3541V50.9309H217.415L206.459 63.7143L205.08 65.3329L204.278 65.3435Z" fill="#242424"/>
<path d="M226.523 60.6465L229.445 56.2499L226.431 51.2666L223.812 47.2976L225.225 47.3789L226.639 47.2976L227.982 49.563L230.774 54.3555L235.199 47.287L236.171 47.3683L237.146 47.287L236.698 47.8136L232.683 53.4331L231.393 55.3804L237.5 65.3435L236.054 65.2375L234.605 65.3152C233.192 62.5609 231.674 59.8937 230.053 57.3137C228.42 59.7688 226.831 62.436 225.286 65.3152L224.314 65.2375L223.338 65.3152L226.523 60.6465Z" fill="#242424"/>
</g>
<defs>
<clipPath id="clip0_131_544">
<rect width="237" height="66" fill="white" transform="translate(0.5 0.557129)"/>
</clipPath>
</defs>
</svg>
