<svg width="30" height="38" viewBox="0 0 30 38" fill="none" xmlns="http://www.w3.org/2000/svg">
<g clip-path="url(#clip0_2195_51)">
<path d="M29.712 10.4745V34.2951C29.712 35.5761 28.5677 36.6142 27.158 36.6142H3.55213C2.14139 36.6142 0.998169 35.5761 0.998169 34.2951V2.93338C0.998092 1.65235 2.14131 0.614258 3.55213 0.614258H18.8532L29.712 10.4745Z" fill="#D3D5D4"/>
<path d="M5.07375 27.6143C5.04042 27.6143 5.01042 27.6043 4.98375 27.5843C4.96375 27.5576 4.95375 27.5276 4.95375 27.4943V20.7343C4.95375 20.7009 4.96375 20.6743 4.98375 20.6543C5.01042 20.6276 5.04042 20.6143 5.07375 20.6143H7.57375C8.07375 20.6143 8.51042 20.7043 8.88375 20.8843C9.26375 21.0576 9.55708 21.3043 9.76375 21.6243C9.97042 21.9443 10.0738 22.3143 10.0738 22.7343V25.4943C10.0738 25.9143 9.97042 26.2843 9.76375 26.6043C9.55708 26.9243 9.26375 27.1743 8.88375 27.3543C8.51042 27.5276 8.07375 27.6143 7.57375 27.6143H5.07375ZM6.36375 26.3543C6.36375 26.3876 6.38042 26.4043 6.41375 26.4043H7.62375C7.93042 26.4043 8.17708 26.3009 8.36375 26.0943C8.55708 25.8876 8.65708 25.6109 8.66375 25.2643V22.9643C8.66375 22.6176 8.56708 22.3409 8.37375 22.1343C8.18708 21.9276 7.93375 21.8243 7.61375 21.8243H6.41375C6.38042 21.8243 6.36375 21.8409 6.36375 21.8743V26.3543ZM13.6156 27.7243C13.0956 27.7243 12.6356 27.6176 12.2356 27.4043C11.8423 27.1909 11.5356 26.8943 11.3156 26.5143C11.0956 26.1276 10.9856 25.6843 10.9856 25.1843V23.0443C10.9856 22.5509 11.0956 22.1143 11.3156 21.7343C11.5356 21.3543 11.8423 21.0609 12.2356 20.8543C12.6356 20.6409 13.0956 20.5343 13.6156 20.5343C14.1423 20.5343 14.6023 20.6409 14.9956 20.8543C15.3956 21.0609 15.7056 21.3543 15.9256 21.7343C16.1456 22.1143 16.2556 22.5509 16.2556 23.0443V25.1843C16.2556 25.6843 16.1456 26.1276 15.9256 26.5143C15.7056 26.9009 15.3956 27.2009 14.9956 27.4143C14.6023 27.6209 14.1423 27.7243 13.6156 27.7243ZM13.6156 26.5143C13.9823 26.5143 14.279 26.3976 14.5056 26.1643C14.7323 25.9309 14.8456 25.6209 14.8456 25.2343V23.0343C14.8456 22.6476 14.7323 22.3376 14.5056 22.1043C14.2856 21.8643 13.989 21.7443 13.6156 21.7443C13.249 21.7443 12.9523 21.8643 12.7256 22.1043C12.5056 22.3376 12.3956 22.6476 12.3956 23.0343V25.2343C12.3956 25.6209 12.5056 25.9309 12.7256 26.1643C12.9523 26.3976 13.249 26.5143 13.6156 26.5143ZM19.7966 27.6943C19.2766 27.6943 18.8199 27.5943 18.4266 27.3943C18.0332 27.1876 17.7299 26.9009 17.5166 26.5343C17.3032 26.1676 17.1966 25.7443 17.1966 25.2643V22.9543C17.1966 22.4743 17.3032 22.0509 17.5166 21.6843C17.7299 21.3176 18.0332 21.0343 18.4266 20.8343C18.8199 20.6343 19.2766 20.5343 19.7966 20.5343C20.3099 20.5343 20.7599 20.6309 21.1466 20.8243C21.5399 21.0109 21.8432 21.2809 22.0566 21.6343C22.2766 21.9809 22.3866 22.3843 22.3866 22.8443C22.3866 22.9043 22.3466 22.9409 22.2666 22.9543L21.0966 23.0243H21.0766C21.0099 23.0243 20.9766 22.9876 20.9766 22.9143C20.9766 22.5609 20.8666 22.2776 20.6466 22.0643C20.4332 21.8509 20.1499 21.7443 19.7966 21.7443C19.4366 21.7443 19.1466 21.8509 18.9266 22.0643C18.7132 22.2776 18.6066 22.5609 18.6066 22.9143V25.3243C18.6066 25.6709 18.7132 25.9509 18.9266 26.1643C19.1466 26.3776 19.4366 26.4843 19.7966 26.4843C20.1499 26.4843 20.4332 26.3776 20.6466 26.1643C20.8666 25.9509 20.9766 25.6709 20.9766 25.3243C20.9766 25.2509 21.0166 25.2143 21.0966 25.2143L22.2666 25.2643C22.2999 25.2643 22.3266 25.2743 22.3466 25.2943C22.3732 25.3143 22.3866 25.3376 22.3866 25.3643C22.3866 25.8243 22.2766 26.2309 22.0566 26.5843C21.8432 26.9376 21.5399 27.2109 21.1466 27.4043C20.7599 27.5976 20.3099 27.6943 19.7966 27.6943Z" fill="#242424"/>
<path d="M29.7142 10.4745H21.4094C19.9986 10.4745 18.8555 9.43644 18.8555 8.15541V0.614258L29.7142 10.4745Z" fill="black"/>
</g>
<defs>
<clipPath id="clip0_2195_51">
<rect width="30" height="37" fill="white" transform="translate(0 0.5)"/>
</clipPath>
</defs>
</svg>
