<svg width="30" height="38" viewBox="0 0 30 38" fill="none" xmlns="http://www.w3.org/2000/svg">
<g clip-path="url(#clip0_2195_51)">
<path d="M29.712 10.4745V34.2951C29.712 35.5761 28.5677 36.6142 27.158 36.6142H3.55213C2.14139 36.6142 0.998169 35.5761 0.998169 34.2951V2.93338C0.998092 1.65235 2.14131 0.614258 3.55213 0.614258H18.8532L29.712 10.4745Z" fill="#D3D5D4"/>
<path d="M7.41375 27.6943C6.90042 27.6943 6.44708 27.5909 6.05375 27.3843C5.66042 27.1776 5.35375 26.8909 5.13375 26.5243C4.92042 26.1509 4.81375 25.7209 4.81375 25.2343V22.9943C4.81375 22.5076 4.92042 22.0776 5.13375 21.7043C5.35375 21.3309 5.66042 21.0443 6.05375 20.8443C6.44708 20.6376 6.90042 20.5343 7.41375 20.5343C7.92042 20.5343 8.36708 20.6343 8.75375 20.8343C9.14708 21.0343 9.45042 21.3076 9.66375 21.6543C9.88375 21.9943 9.99375 22.3743 9.99375 22.7943V22.8643C9.99375 22.8976 9.98042 22.9276 9.95375 22.9543C9.93375 22.9743 9.90708 22.9843 9.87375 22.9843H8.70375C8.67042 22.9843 8.64042 22.9743 8.61375 22.9543C8.59375 22.9276 8.58375 22.8976 8.58375 22.8643V22.8343C8.58375 22.5276 8.47708 22.2709 8.26375 22.0643C8.05042 21.8509 7.76708 21.7443 7.41375 21.7443C7.05375 21.7443 6.76375 21.8576 6.54375 22.0843C6.33042 22.3043 6.22375 22.5943 6.22375 22.9543V25.2743C6.22375 25.6343 6.34042 25.9276 6.57375 26.1543C6.80708 26.3743 7.10375 26.4843 7.46375 26.4843C7.81042 26.4843 8.08708 26.3943 8.29375 26.2143C8.50042 26.0276 8.60375 25.7709 8.60375 25.4443V24.9943C8.60375 24.9609 8.58708 24.9443 8.55375 24.9443H7.43375C7.40042 24.9443 7.37042 24.9343 7.34375 24.9143C7.32375 24.8876 7.31375 24.8576 7.31375 24.8243V23.9043C7.31375 23.8709 7.32375 23.8443 7.34375 23.8243C7.37042 23.7976 7.40042 23.7843 7.43375 23.7843H9.87375C9.90708 23.7843 9.93375 23.7976 9.95375 23.8243C9.98042 23.8443 9.99375 23.8709 9.99375 23.9043V25.2243C9.99375 25.7309 9.88708 26.1709 9.67375 26.5443C9.46042 26.9176 9.15708 27.2043 8.76375 27.4043C8.37708 27.5976 7.92708 27.6943 7.41375 27.6943ZM11.1968 27.6143C11.1635 27.6143 11.1335 27.6043 11.1068 27.5843C11.0868 27.5576 11.0768 27.5276 11.0768 27.4943V20.7343C11.0768 20.7009 11.0868 20.6743 11.1068 20.6543C11.1335 20.6276 11.1635 20.6143 11.1968 20.6143H12.3668C12.4001 20.6143 12.4268 20.6276 12.4468 20.6543C12.4735 20.6743 12.4868 20.7009 12.4868 20.7343V27.4943C12.4868 27.5276 12.4735 27.5576 12.4468 27.5843C12.4268 27.6043 12.4001 27.6143 12.3668 27.6143H11.1968ZM18.5538 21.7043C18.5538 21.7376 18.5404 21.7676 18.5138 21.7943C18.4938 21.8143 18.4671 21.8243 18.4338 21.8243H15.1638C15.1304 21.8243 15.1138 21.8409 15.1138 21.8743V23.4243C15.1138 23.4576 15.1304 23.4743 15.1638 23.4743H17.3138C17.3471 23.4743 17.3738 23.4876 17.3938 23.5143C17.4204 23.5343 17.4338 23.5609 17.4338 23.5943V24.5643C17.4338 24.5976 17.4204 24.6276 17.3938 24.6543C17.3738 24.6743 17.3471 24.6843 17.3138 24.6843H15.1638C15.1304 24.6843 15.1138 24.7009 15.1138 24.7343V27.4943C15.1138 27.5276 15.1004 27.5576 15.0738 27.5843C15.0538 27.6043 15.0271 27.6143 14.9938 27.6143H13.8238C13.7904 27.6143 13.7604 27.6043 13.7338 27.5843C13.7138 27.5576 13.7038 27.5276 13.7038 27.4943V20.7343C13.7038 20.7009 13.7138 20.6743 13.7338 20.6543C13.7604 20.6276 13.7904 20.6143 13.8238 20.6143H18.4338C18.4671 20.6143 18.4938 20.6276 18.5138 20.6543C18.5404 20.6743 18.5538 20.7009 18.5538 20.7343V21.7043Z" fill="#242424"/>
<path d="M29.7142 10.4745H21.4094C19.9986 10.4745 18.8555 9.43644 18.8555 8.15541V0.614258L29.7142 10.4745Z" fill="black"/>
</g>
<defs>
<clipPath id="clip0_2195_51">
<rect width="30" height="37" fill="white" transform="translate(0 0.5)"/>
</clipPath>
</defs>
</svg>
