<svg width="30" height="38" viewBox="0 0 30 38" fill="none" xmlns="http://www.w3.org/2000/svg">
<g clip-path="url(#clip0_2195_51)">
<path d="M29.712 10.4745V34.2951C29.712 35.5761 28.5677 36.6142 27.158 36.6142H3.55213C2.14139 36.6142 0.998169 35.5761 0.998169 34.2951V2.93338C0.998092 1.65235 2.14131 0.614258 3.55213 0.614258H18.8532L29.712 10.4745Z" fill="#D3D5D4"/>
<path d="M7.04375 27.6943C6.53708 27.6943 6.09375 27.6009 5.71375 27.4143C5.34042 27.2209 5.05042 26.9543 4.84375 26.6143C4.63708 26.2676 4.53375 25.8676 4.53375 25.4143V24.7843C4.53375 24.7509 4.54375 24.7243 4.56375 24.7043C4.59042 24.6776 4.62042 24.6643 4.65375 24.6643H5.82375C5.85708 24.6643 5.88375 24.6776 5.90375 24.7043C5.93042 24.7243 5.94375 24.7509 5.94375 24.7843V25.4143C5.94375 25.7343 6.04042 25.9943 6.23375 26.1943C6.43375 26.3876 6.70375 26.4843 7.04375 26.4843C7.37042 26.4843 7.63708 26.3876 7.84375 26.1943C8.05708 25.9943 8.16375 25.7343 8.16375 25.4143V20.7343C8.16375 20.7009 8.17375 20.6743 8.19375 20.6543C8.22042 20.6276 8.25042 20.6143 8.28375 20.6143H9.44375C9.47708 20.6143 9.50375 20.6276 9.52375 20.6543C9.55042 20.6743 9.56375 20.7009 9.56375 20.7343V25.4143C9.56375 25.8676 9.45708 26.2676 9.24375 26.6143C9.03042 26.9543 8.73375 27.2209 8.35375 27.4143C7.97375 27.6009 7.53708 27.6943 7.04375 27.6943ZM13.6738 20.6043C14.1138 20.6043 14.5005 20.6943 14.8338 20.8743C15.1672 21.0543 15.4238 21.3109 15.6038 21.6443C15.7905 21.9709 15.8838 22.3476 15.8838 22.7743C15.8838 23.1943 15.7872 23.5643 15.5938 23.8843C15.4072 24.2043 15.1405 24.4543 14.7938 24.6343C14.4538 24.8076 14.0605 24.8943 13.6138 24.8943H12.1938C12.1605 24.8943 12.1438 24.9109 12.1438 24.9443V27.4943C12.1438 27.5276 12.1305 27.5576 12.1038 27.5843C12.0838 27.6043 12.0572 27.6143 12.0238 27.6143H10.8538C10.8205 27.6143 10.7905 27.6043 10.7638 27.5843C10.7438 27.5576 10.7338 27.5276 10.7338 27.4943V20.7243C10.7338 20.6909 10.7438 20.6643 10.7638 20.6443C10.7905 20.6176 10.8205 20.6043 10.8538 20.6043H13.6738ZM13.4638 23.7643C13.7705 23.7643 14.0172 23.6776 14.2038 23.5043C14.3905 23.3243 14.4838 23.0909 14.4838 22.8043C14.4838 22.5109 14.3905 22.2743 14.2038 22.0943C14.0172 21.9143 13.7705 21.8243 13.4638 21.8243H12.1938C12.1605 21.8243 12.1438 21.8409 12.1438 21.8743V23.7143C12.1438 23.7476 12.1605 23.7643 12.1938 23.7643H13.4638ZM19.2106 27.6943C18.6973 27.6943 18.244 27.5909 17.8506 27.3843C17.4573 27.1776 17.1506 26.8909 16.9306 26.5243C16.7173 26.1509 16.6106 25.7209 16.6106 25.2343V22.9943C16.6106 22.5076 16.7173 22.0776 16.9306 21.7043C17.1506 21.3309 17.4573 21.0443 17.8506 20.8443C18.244 20.6376 18.6973 20.5343 19.2106 20.5343C19.7173 20.5343 20.164 20.6343 20.5506 20.8343C20.944 21.0343 21.2473 21.3076 21.4606 21.6543C21.6806 21.9943 21.7906 22.3743 21.7906 22.7943V22.8643C21.7906 22.8976 21.7773 22.9276 21.7506 22.9543C21.7306 22.9743 21.704 22.9843 21.6706 22.9843H20.5006C20.4673 22.9843 20.4373 22.9743 20.4106 22.9543C20.3906 22.9276 20.3806 22.8976 20.3806 22.8643V22.8343C20.3806 22.5276 20.274 22.2709 20.0606 22.0643C19.8473 21.8509 19.564 21.7443 19.2106 21.7443C18.8506 21.7443 18.5606 21.8576 18.3406 22.0843C18.1273 22.3043 18.0206 22.5943 18.0206 22.9543V25.2743C18.0206 25.6343 18.1373 25.9276 18.3706 26.1543C18.604 26.3743 18.9006 26.4843 19.2606 26.4843C19.6073 26.4843 19.884 26.3943 20.0906 26.2143C20.2973 26.0276 20.4006 25.7709 20.4006 25.4443V24.9943C20.4006 24.9609 20.384 24.9443 20.3506 24.9443H19.2306C19.1973 24.9443 19.1673 24.9343 19.1406 24.9143C19.1206 24.8876 19.1106 24.8576 19.1106 24.8243V23.9043C19.1106 23.8709 19.1206 23.8443 19.1406 23.8243C19.1673 23.7976 19.1973 23.7843 19.2306 23.7843H21.6706C21.704 23.7843 21.7306 23.7976 21.7506 23.8243C21.7773 23.8443 21.7906 23.8709 21.7906 23.9043V25.2243C21.7906 25.7309 21.684 26.1709 21.4706 26.5443C21.2573 26.9176 20.954 27.2043 20.5606 27.4043C20.174 27.5976 19.724 27.6943 19.2106 27.6943Z" fill="#242424"/>
<path d="M29.7142 10.4745H21.4094C19.9986 10.4745 18.8555 9.43644 18.8555 8.15541V0.614258L29.7142 10.4745Z" fill="black"/>
</g>
<defs>
<clipPath id="clip0_2195_51">
<rect width="30" height="37" fill="white" transform="translate(0 0.5)"/>
</clipPath>
</defs>
</svg>
