<svg width="30" height="38" viewBox="0 0 30 38" fill="none" xmlns="http://www.w3.org/2000/svg">
<g clip-path="url(#clip0_2195_51)">
<path d="M29.712 10.4745V34.2951C29.712 35.5761 28.5677 36.6142 27.158 36.6142H3.55213C2.14139 36.6142 0.998169 35.5761 0.998169 34.2951V2.93338C0.998092 1.65235 2.14131 0.614258 3.55213 0.614258H18.8532L29.712 10.4745Z" fill="#D3D5D4"/>
<path d="M7.84375 20.6043C8.28375 20.6043 8.67042 20.6943 9.00375 20.8743C9.33708 21.0543 9.59375 21.3109 9.77375 21.6443C9.96042 21.9709 10.0538 22.3476 10.0538 22.7743C10.0538 23.1943 9.95708 23.5643 9.76375 23.8843C9.57708 24.2043 9.31042 24.4543 8.96375 24.6343C8.62375 24.8076 8.23042 24.8943 7.78375 24.8943H6.36375C6.33042 24.8943 6.31375 24.9109 6.31375 24.9443V27.4943C6.31375 27.5276 6.30042 27.5576 6.27375 27.5843C6.25375 27.6043 6.22708 27.6143 6.19375 27.6143H5.02375C4.99042 27.6143 4.96042 27.6043 4.93375 27.5843C4.91375 27.5576 4.90375 27.5276 4.90375 27.4943V20.7243C4.90375 20.6909 4.91375 20.6643 4.93375 20.6443C4.96042 20.6176 4.99042 20.6043 5.02375 20.6043H7.84375ZM7.63375 23.7643C7.94042 23.7643 8.18708 23.6776 8.37375 23.5043C8.56042 23.3243 8.65375 23.0909 8.65375 22.8043C8.65375 22.5109 8.56042 22.2743 8.37375 22.0943C8.18708 21.9143 7.94042 21.8243 7.63375 21.8243H6.36375C6.33042 21.8243 6.31375 21.8409 6.31375 21.8743V23.7143C6.31375 23.7476 6.33042 23.7643 6.36375 23.7643H7.63375ZM11.0405 27.6143C11.0072 27.6143 10.9772 27.6043 10.9505 27.5843C10.9305 27.5576 10.9205 27.5276 10.9205 27.4943V20.7343C10.9205 20.7009 10.9305 20.6743 10.9505 20.6543C10.9772 20.6276 11.0072 20.6143 11.0405 20.6143H13.5405C14.0405 20.6143 14.4772 20.7043 14.8505 20.8843C15.2305 21.0576 15.5239 21.3043 15.7305 21.6243C15.9372 21.9443 16.0405 22.3143 16.0405 22.7343V25.4943C16.0405 25.9143 15.9372 26.2843 15.7305 26.6043C15.5239 26.9243 15.2305 27.1743 14.8505 27.3543C14.4772 27.5276 14.0405 27.6143 13.5405 27.6143H11.0405ZM12.3305 26.3543C12.3305 26.3876 12.3472 26.4043 12.3805 26.4043H13.5905C13.8972 26.4043 14.1439 26.3009 14.3305 26.0943C14.5239 25.8876 14.6239 25.6109 14.6305 25.2643V22.9643C14.6305 22.6176 14.5339 22.3409 14.3405 22.1343C14.1539 21.9276 13.9005 21.8243 13.5805 21.8243H12.3805C12.3472 21.8243 12.3305 21.8409 12.3305 21.8743V26.3543ZM21.9522 21.7043C21.9522 21.7376 21.9389 21.7676 21.9122 21.7943C21.8922 21.8143 21.8655 21.8243 21.8322 21.8243H18.5622C18.5289 21.8243 18.5122 21.8409 18.5122 21.8743V23.4243C18.5122 23.4576 18.5289 23.4743 18.5622 23.4743H20.7122C20.7455 23.4743 20.7722 23.4876 20.7922 23.5143C20.8189 23.5343 20.8322 23.5609 20.8322 23.5943V24.5643C20.8322 24.5976 20.8189 24.6276 20.7922 24.6543C20.7722 24.6743 20.7455 24.6843 20.7122 24.6843H18.5622C18.5289 24.6843 18.5122 24.7009 18.5122 24.7343V27.4943C18.5122 27.5276 18.4989 27.5576 18.4722 27.5843C18.4522 27.6043 18.4255 27.6143 18.3922 27.6143H17.2222C17.1889 27.6143 17.1589 27.6043 17.1322 27.5843C17.1122 27.5576 17.1022 27.5276 17.1022 27.4943V20.7343C17.1022 20.7009 17.1122 20.6743 17.1322 20.6543C17.1589 20.6276 17.1889 20.6143 17.2222 20.6143H21.8322C21.8655 20.6143 21.8922 20.6276 21.9122 20.6543C21.9389 20.6743 21.9522 20.7009 21.9522 20.7343V21.7043Z" fill="#242424"/>
<path d="M29.7142 10.4745H21.4094C19.9986 10.4745 18.8555 9.43644 18.8555 8.15541V0.614258L29.7142 10.4745Z" fill="black"/>
</g>
<defs>
<clipPath id="clip0_2195_51">
<rect width="30" height="37" fill="white" transform="translate(0 0.5)"/>
</clipPath>
</defs>
</svg>
