<svg width="30" height="38" viewBox="0 0 30 38" fill="none" xmlns="http://www.w3.org/2000/svg">
<g clip-path="url(#clip0_2195_51)">
<path d="M29.712 10.4745V34.2951C29.712 35.5761 28.5677 36.6142 27.158 36.6142H3.55213C2.14139 36.6142 0.998169 35.5761 0.998169 34.2951V2.93338C0.998092 1.65235 2.14131 0.614258 3.55213 0.614258H18.8532L29.712 10.4745Z" fill="#D3D5D4"/>
<path d="M7.84375 20.6043C8.28375 20.6043 8.67042 20.6943 9.00375 20.8743C9.33708 21.0543 9.59375 21.3109 9.77375 21.6443C9.96042 21.9709 10.0538 22.3476 10.0538 22.7743C10.0538 23.1943 9.95708 23.5643 9.76375 23.8843C9.57708 24.2043 9.31042 24.4543 8.96375 24.6343C8.62375 24.8076 8.23042 24.8943 7.78375 24.8943H6.36375C6.33042 24.8943 6.31375 24.9109 6.31375 24.9443V27.4943C6.31375 27.5276 6.30042 27.5576 6.27375 27.5843C6.25375 27.6043 6.22708 27.6143 6.19375 27.6143H5.02375C4.99042 27.6143 4.96042 27.6043 4.93375 27.5843C4.91375 27.5576 4.90375 27.5276 4.90375 27.4943V20.7243C4.90375 20.6909 4.91375 20.6643 4.93375 20.6443C4.96042 20.6176 4.99042 20.6043 5.02375 20.6043H7.84375ZM7.63375 23.7643C7.94042 23.7643 8.18708 23.6776 8.37375 23.5043C8.56042 23.3243 8.65375 23.0909 8.65375 22.8043C8.65375 22.5109 8.56042 22.2743 8.37375 22.0943C8.18708 21.9143 7.94042 21.8243 7.63375 21.8243H6.36375C6.33042 21.8243 6.31375 21.8409 6.31375 21.8743V23.7143C6.31375 23.7476 6.33042 23.7643 6.36375 23.7643H7.63375ZM14.9405 20.7343C14.9405 20.7009 14.9505 20.6743 14.9705 20.6543C14.9972 20.6276 15.0272 20.6143 15.0605 20.6143H16.2305C16.2639 20.6143 16.2905 20.6276 16.3105 20.6543C16.3372 20.6743 16.3505 20.7009 16.3505 20.7343V27.4943C16.3505 27.5276 16.3372 27.5576 16.3105 27.5843C16.2905 27.6043 16.2639 27.6143 16.2305 27.6143H15.1005C15.0339 27.6143 14.9872 27.5876 14.9605 27.5343L12.3705 23.2543C12.3572 23.2343 12.3439 23.2276 12.3305 23.2343C12.3172 23.2343 12.3105 23.2476 12.3105 23.2743L12.3305 27.4943C12.3305 27.5276 12.3172 27.5576 12.2905 27.5843C12.2705 27.6043 12.2439 27.6143 12.2105 27.6143H11.0405C11.0072 27.6143 10.9772 27.6043 10.9505 27.5843C10.9305 27.5576 10.9205 27.5276 10.9205 27.4943V20.7343C10.9205 20.7009 10.9305 20.6743 10.9505 20.6543C10.9772 20.6276 11.0072 20.6143 11.0405 20.6143H12.1705C12.2372 20.6143 12.2839 20.6409 12.3105 20.6943L14.8905 24.9543C14.9039 24.9743 14.9172 24.9843 14.9305 24.9843C14.9439 24.9776 14.9505 24.9609 14.9505 24.9343L14.9405 20.7343ZM20.0309 27.6943C19.5176 27.6943 19.0643 27.5909 18.6709 27.3843C18.2776 27.1776 17.9709 26.8909 17.7509 26.5243C17.5376 26.1509 17.4309 25.7209 17.4309 25.2343V22.9943C17.4309 22.5076 17.5376 22.0776 17.7509 21.7043C17.9709 21.3309 18.2776 21.0443 18.6709 20.8443C19.0643 20.6376 19.5176 20.5343 20.0309 20.5343C20.5376 20.5343 20.9843 20.6343 21.3709 20.8343C21.7643 21.0343 22.0676 21.3076 22.2809 21.6543C22.5009 21.9943 22.6109 22.3743 22.6109 22.7943V22.8643C22.6109 22.8976 22.5976 22.9276 22.5709 22.9543C22.5509 22.9743 22.5243 22.9843 22.4909 22.9843H21.3209C21.2876 22.9843 21.2576 22.9743 21.2309 22.9543C21.2109 22.9276 21.2009 22.8976 21.2009 22.8643V22.8343C21.2009 22.5276 21.0943 22.2709 20.8809 22.0643C20.6676 21.8509 20.3843 21.7443 20.0309 21.7443C19.6709 21.7443 19.3809 21.8576 19.1609 22.0843C18.9476 22.3043 18.8409 22.5943 18.8409 22.9543V25.2743C18.8409 25.6343 18.9576 25.9276 19.1909 26.1543C19.4243 26.3743 19.7209 26.4843 20.0809 26.4843C20.4276 26.4843 20.7043 26.3943 20.9109 26.2143C21.1176 26.0276 21.2209 25.7709 21.2209 25.4443V24.9943C21.2209 24.9609 21.2043 24.9443 21.1709 24.9443H20.0509C20.0176 24.9443 19.9876 24.9343 19.9609 24.9143C19.9409 24.8876 19.9309 24.8576 19.9309 24.8243V23.9043C19.9309 23.8709 19.9409 23.8443 19.9609 23.8243C19.9876 23.7976 20.0176 23.7843 20.0509 23.7843H22.4909C22.5243 23.7843 22.5509 23.7976 22.5709 23.8243C22.5976 23.8443 22.6109 23.8709 22.6109 23.9043V25.2243C22.6109 25.7309 22.5043 26.1709 22.2909 26.5443C22.0776 26.9176 21.7743 27.2043 21.3809 27.4043C20.9943 27.5976 20.5443 27.6943 20.0309 27.6943Z" fill="#242424"/>
<path d="M29.7142 10.4745H21.4094C19.9986 10.4745 18.8555 9.43644 18.8555 8.15541V0.614258L29.7142 10.4745Z" fill="black"/>
</g>
<defs>
<clipPath id="clip0_2195_51">
<rect width="30" height="37" fill="white" transform="translate(0 0.5)"/>
</clipPath>
</defs>
</svg>
