<svg width="30" height="38" viewBox="0 0 30 38" fill="none" xmlns="http://www.w3.org/2000/svg">
<g clip-path="url(#clip0_2195_51)">
<path d="M29.712 10.4745V34.2951C29.712 35.5761 28.5677 36.6142 27.158 36.6142H3.55213C2.14139 36.6142 0.998169 35.5761 0.998169 34.2951V2.93338C0.998092 1.65235 2.14131 0.614258 3.55213 0.614258H18.8532L29.712 10.4745Z" fill="#D3D5D4"/>
<path d="M4.75375 27.6143C4.70708 27.6143 4.67375 27.6009 4.65375 27.5743C4.63375 27.5476 4.63708 27.5143 4.66375 27.4743L6.60375 24.1443C6.61708 24.1243 6.61708 24.1043 6.60375 24.0843L4.66375 20.7543L4.64375 20.6943C4.64375 20.6409 4.68042 20.6143 4.75375 20.6143H6.02375C6.09042 20.6143 6.14042 20.6409 6.17375 20.6943L7.47375 22.9843C7.49375 23.0243 7.51375 23.0243 7.53375 22.9843L8.83375 20.6943C8.86708 20.6409 8.91708 20.6143 8.98375 20.6143H10.2438C10.2904 20.6143 10.3238 20.6276 10.3438 20.6543C10.3638 20.6809 10.3604 20.7143 10.3338 20.7543L8.39375 24.0843C8.38708 24.1043 8.38708 24.1243 8.39375 24.1443L10.3338 27.4743L10.3538 27.5343C10.3538 27.5876 10.3171 27.6143 10.2438 27.6143H8.98375C8.91708 27.6143 8.86708 27.5876 8.83375 27.5343L7.53375 25.2543C7.51375 25.2143 7.49375 25.2143 7.47375 25.2543L6.16375 27.5343C6.13042 27.5876 6.08042 27.6143 6.01375 27.6143H4.75375ZM11.3823 27.6143C11.349 27.6143 11.319 27.6043 11.2923 27.5843C11.2723 27.5576 11.2623 27.5276 11.2623 27.4943V20.7343C11.2623 20.7009 11.2723 20.6743 11.2923 20.6543C11.319 20.6276 11.349 20.6143 11.3823 20.6143H12.5523C12.5857 20.6143 12.6123 20.6276 12.6323 20.6543C12.659 20.6743 12.6723 20.7009 12.6723 20.7343V26.3543C12.6723 26.3876 12.689 26.4043 12.7223 26.4043H15.9923C16.0257 26.4043 16.0523 26.4176 16.0723 26.4443C16.099 26.4643 16.1123 26.4909 16.1123 26.5243V27.4943C16.1123 27.5276 16.099 27.5576 16.0723 27.5843C16.0523 27.6043 16.0257 27.6143 15.9923 27.6143H11.3823ZM19.385 27.6943C18.8517 27.6943 18.385 27.6109 17.985 27.4443C17.585 27.2709 17.275 27.0276 17.055 26.7143C16.8417 26.3943 16.735 26.0243 16.735 25.6043V25.3843C16.735 25.3509 16.745 25.3243 16.765 25.3043C16.7917 25.2776 16.8217 25.2643 16.855 25.2643H17.995C18.0283 25.2643 18.055 25.2776 18.075 25.3043C18.1017 25.3243 18.115 25.3509 18.115 25.3843V25.5343C18.115 25.8009 18.2383 26.0276 18.485 26.2143C18.7317 26.3943 19.065 26.4843 19.485 26.4843C19.8383 26.4843 20.1017 26.4109 20.275 26.2643C20.4483 26.1109 20.535 25.9243 20.535 25.7043C20.535 25.5443 20.4817 25.4109 20.375 25.3043C20.2683 25.1909 20.1217 25.0943 19.935 25.0143C19.755 24.9276 19.465 24.8109 19.065 24.6643C18.6183 24.5109 18.2383 24.3543 17.925 24.1943C17.6183 24.0343 17.3583 23.8176 17.145 23.5443C16.9383 23.2643 16.835 22.9209 16.835 22.5143C16.835 22.1143 16.9383 21.7643 17.145 21.4643C17.3517 21.1643 17.6383 20.9343 18.005 20.7743C18.3717 20.6143 18.795 20.5343 19.275 20.5343C19.7817 20.5343 20.2317 20.6243 20.625 20.8043C21.025 20.9843 21.335 21.2376 21.555 21.5643C21.7817 21.8843 21.895 22.2576 21.895 22.6843V22.8343C21.895 22.8676 21.8817 22.8976 21.855 22.9243C21.835 22.9443 21.8083 22.9543 21.775 22.9543H20.625C20.5917 22.9543 20.5617 22.9443 20.535 22.9243C20.515 22.8976 20.505 22.8676 20.505 22.8343V22.7543C20.505 22.4743 20.3883 22.2376 20.155 22.0443C19.9283 21.8443 19.615 21.7443 19.215 21.7443C18.9017 21.7443 18.655 21.8109 18.475 21.9443C18.3017 22.0776 18.215 22.2609 18.215 22.4943C18.215 22.6609 18.265 22.8009 18.365 22.9143C18.4717 23.0276 18.625 23.1309 18.825 23.2243C19.0317 23.3109 19.3483 23.4309 19.775 23.5843C20.2483 23.7576 20.6183 23.9109 20.885 24.0443C21.1583 24.1776 21.4017 24.3776 21.615 24.6443C21.835 24.9043 21.945 25.2443 21.945 25.6643C21.945 26.2909 21.715 26.7876 21.255 27.1543C20.795 27.5143 20.1717 27.6943 19.385 27.6943Z" fill="#242424"/>
<path d="M29.7142 10.4745H21.4094C19.9986 10.4745 18.8555 9.43644 18.8555 8.15541V0.614258L29.7142 10.4745Z" fill="black"/>
</g>
<defs>
<clipPath id="clip0_2195_51">
<rect width="30" height="37" fill="white" transform="translate(0 0.5)"/>
</clipPath>
</defs>
</svg>
