<svg width="55" height="68" viewBox="0 0 55 68" fill="none" xmlns="http://www.w3.org/2000/svg">
<g clip-path="url(#clip0_2218_1133)">
<path fill-rule="evenodd" clip-rule="evenodd" d="M26.012 65.6683C27.3557 65.6683 51.364 40.0167 51.364 26.0152C51.364 12.0138 40.0134 0.66333 26.012 0.66333C12.0106 0.66333 0.660156 12.0138 0.660156 26.0152C0.660156 40.0167 24.6684 65.6683 26.012 65.6683ZM26.0121 38.6954C33.1108 38.6954 38.8656 32.9406 38.8656 25.8419C38.8656 18.7431 33.1108 12.9884 26.0121 12.9884C18.9134 12.9884 13.1587 18.7431 13.1587 25.8419C13.1587 32.9406 18.9134 38.6954 26.0121 38.6954Z" fill="#1DAEEF"/>
<path fill-rule="evenodd" clip-rule="evenodd" d="M0.660156 26.0152C0.660156 40.0167 24.6684 65.6683 26.012 65.6683V38.6954C18.9133 38.6951 13.1587 32.9406 13.1587 25.8419C13.1587 18.7431 18.9133 12.9885 26.012 12.9884V0.66333C12.0106 0.66333 0.660156 12.0138 0.660156 26.0152Z" fill="#3EC3FF"/>
</g>
<defs>
<clipPath id="clip0_2218_1133">
<rect width="54.4" height="68" fill="white" transform="translate(0.299805)"/>
</clipPath>
</defs>
</svg>
